<svg xmlns="http://www.w3.org/2000/svg" xmlns:xlink="http://www.w3.org/1999/xlink" width="676" height="180" viewBox="0 0 676 180"><defs><path id="a" d="M-80-206.28h841.89V389H-80z"></path></defs><clipPath id="b"><use xlink:href="#a" overflow="visible"></use></clipPath><path clip-path="url(#b)" fill="#D02153" d="M42.621 100.433c2.283-.173 4.311-.316 7.487-.316l1.452-.007c6.884-.063 21.157-.174 29.536 8.132 4.429 4.388 6.674 10.688 6.674 18.725 0 20.931-17.726 25.326-32.595 25.326-5.45 0-9.825-.366-12.554-.676v-51.184zm13.504-22.157c-4.882.399-8.914.417-13.504.275v-45.64c3.994-.51 6.39-.659 10.129-.659 12.659 0 27.753 4.087 27.753 23.564 0 5.951-2.379 20.06-24.378 22.46m32.948 8.821c11.183-5.607 24.477-16.343 24.477-35.687 0-13.158-6.248-24.18-17.584-31.022-12.746-7.845-30.616-8.852-44.759-8.852-12.697 0-30.11 1.277-35.864 3.201-4.69 1.755-5.547 4.455-5.547 9.138v137.23c0 5.745.851 8.383 6.112 9.846 4.081 1.201 19.003 2.934 35.299 2.934 20.014 0 33.808-2.01 44.776-6.538 16.727-7.467 25.938-21.101 25.938-38.399 0-20.619-12.278-36.224-32.848-41.851M331.315 79.307l-10.377-5.016c-15.629-7.593-25.208-12.901-25.208-25.742 0-11.46 9.448-13.867 17.374-13.867 3.568 0 6.757.886 9.709 2.688.694.443 1.332.882 2.059 1.514.607.428 1.139.902 1.84 1.658.423.365.789.731 1.19 1.192a26.706 26.706 0 0 1 1.815 2.225c.434.563.811 1.124 1.19 1.791 1.135 1.737 2.008 3.482 2.759 4.978.385.691.734 1.361 1.073 2.005 2.418 4.61 4.703 8.939 13.218 7.651 2.846-.527 9.732-3.236 11.778-4.051 7.311-2.926 5.564-9.076 4.989-11.097l-.125-.457c-.578-2.203-1.538-5.527-3.132-8.956-2.392-5.368-5.716-10.031-9.944-13.914-5.239-4.362-11.842-7.704-19.073-9.663-5.667-1.64-11.866-2.473-18.429-2.473-29.275 0-48.945 17.967-48.945 44.707 0 27.502 22.252 39.751 30.909 44.514l12.542 6.421c17.298 9.1 27.738 14.594 27.738 29.012 0 10.093-6.213 14.995-18.998 14.995-10.625 0-18.074-4.324-22.187-12.959-.721-1.287-1.328-2.717-1.942-4.153-2.192-5.137-4.925-11.53-12.981-10.224-1.95.268-5.942 1.627-12.557 4.28-7.554 3.016-5.805 9.424-5.229 11.53l.149.565c3.524 13.976 15.069 37.425 52.772 37.425 31.512 0 52.687-18.961 52.687-47.176 0-30.144-22.711-42.076-36.664-49.403M193.7 114.02c-6.055 0-11.445-3.1-13.282-7.118l.507-1.522L193.7 67.052l12.775 38.327.508 1.522c-1.838 4.019-7.226 7.119-13.283 7.119m11.893-95.651c-1.321-2.863-1.979-3.305-5.284-3.305H187.091c-3.302 0-3.963.442-5.283 3.305L128.06 164.632c-.663 1.323-.882 2.203-.882 3.085 0 .705.168 1.217.428 1.618.055.086.146.122.21.196.244.282.512.521.842.665.085.036.175.047.262.078.357.122.714.215 1.09.25.124.011.229.013.35.021.189.011.386.036.563.036h22.25c3.743 0 4.623-.223 6.166-3.966l12.271-34.125c6.272 3.928 13.881 6.248 22.09 6.248 8.212 0 15.82-2.32 22.092-6.246l12.272 34.123c1.54 3.743 2.42 3.966 6.166 3.966h22.249c.178 0 .375-.025.563-.036.122-.008.226-.01.348-.021a4.711 4.711 0 0 0 1.093-.25c.086-.029.177-.042.259-.078.333-.146.603-.383.845-.667.064-.072.155-.11.21-.194.257-.401.428-.913.428-1.618 0-.882-.222-1.762-.882-3.085l-53.75-146.263zM604.753 114.02c-6.058 0-11.444-3.101-13.282-7.118l.508-1.523 12.774-38.327 12.774 38.327.508 1.523c-1.837 4.017-7.226 7.118-13.282 7.118m65.641 50.611L616.646 18.368c-1.321-2.861-1.981-3.304-5.283-3.304h-13.217c-3.306 0-3.963.443-5.284 3.304l-53.748 146.263c-.662 1.323-.884 2.203-.884 3.088 0 .702.171 1.215.428 1.615.057.086.148.122.212.197.242.282.51.521.843.665.084.036.174.047.26.078a4.7 4.7 0 0 0 1.093.25c.124.011.226.013.348.021.188.01.387.034.563.034H564.225c3.746 0 4.625-.222 6.166-3.965l12.271-34.123c6.273 3.925 13.881 6.246 22.093 6.246 8.211 0 15.817-2.321 22.093-6.246l12.269 34.123c1.543 3.743 2.423 3.965 6.168 3.965H667.534c.175 0 .374-.024.563-.034.118-.009.223-.011.348-.021a4.75 4.75 0 0 0 1.092-.25c.087-.029.175-.042.26-.078.332-.146.601-.383.843-.665.065-.075.154-.111.21-.197.26-.4.428-.913.428-1.615-.003-.885-.221-1.765-.884-3.088M520.87 15.064h-25.764c-4.187 0-4.849.441-6.606 4.628l-31.868 54.587-31.87-54.587c-1.759-4.187-2.42-4.628-6.607-4.628H392.391c-3.523 0-4.621.441-4.621 4.187v146.704c0 4.185 1.098 4.625 5.284 4.625h17.623c4.187 0 4.847-.884 4.847-5.065V61.042l34.938 63.309c1.166 2.837 2.217 4.278 4.087 4.812.536.166 1.188.239 1.981.246.038.002.06.014.1.014h.01c.037 0 .06-.014.1-.014.791-.007 1.442-.08 1.979-.246 1.871-.533 2.921-1.975 4.087-4.812l34.935-63.309v104.473c0 4.182.663 5.065 4.849 5.065h17.623c4.188 0 5.284-.44 5.284-4.625V19.251c-.006-3.746-1.102-4.187-4.627-4.187"></path></svg>